<svg xmlns="http://www.w3.org/2000/svg" viewBox="0 0 520 360" role="img" aria-label="Automation and monitoring"><defs><style>
.base{fill:#0C2F54}.accent{fill:#18B7B0}.light{fill:#E8F7F7}
.stroke{stroke:#0C2F54;stroke-width:4;fill:none;stroke-linecap:round;stroke-linejoin:round}
</style></defs>
<rect x="24" y="24" width="472" height="312" rx="16" class="light"/>
<circle cx="420" cy="110" r="56" class="accent"/><circle cx="420" cy="110" r="28" class="light"/>
<path d="M420 110l24 -12" class="stroke"/>
<rect x="56" y="76" width="220" height="60" rx="10" class="base"/>
<rect x="68" y="88" width="120" height="12" rx="6" class="light"/><rect x="68" y="108" width="90" height="12" rx="6" class="accent"/>
<rect x="56" y="160" width="220" height="60" rx="10" class="base"/>
<rect x="68" y="172" width="120" height="12" rx="6" class="light"/><rect x="68" y="192" width="90" height="12" rx="6" class="accent"/>
<rect x="56" y="244" width="220" height="60" rx="10" class="base"/>
<rect x="68" y="256" width="120" height="12" rx="6" class="light"/><rect x="68" y="276" width="90" height="12" rx="6" class="accent"/>
<path d="M284 106h68" class="stroke"/><path d="M342 98l10 8-10 8" class="stroke"/>
<path d="M284 190h68" class="stroke"/><path d="M342 182l10 8-10 8" class="stroke"/>
<path d="M284 274h68" class="stroke"/><path d="M342 266l10 8-10 8" class="stroke"/>
</svg>